<svg width="254" height="219" viewBox="0 0 254 219" fill="none" xmlns="http://www.w3.org/2000/svg">
<path d="M309.68 -45.2201C294.201 -59.6791 275.786 -71.1668 255.492 -79.0231C235.199 -86.8793 213.427 -90.9495 191.428 -90.9995C169.428 -91.0496 147.635 -87.0787 127.3 -79.3149C106.965 -71.5511 88.4887 -60.1474 72.9328 -45.759C57.3769 -31.3706 45.0479 -14.2811 36.6541 4.52783C28.2604 23.3367 23.9672 43.4943 24.0214 63.8425C24.0755 84.1907 28.4759 104.329 36.9696 123.099C45.4634 141.869 57.8832 158.903 73.5155 173.22C88.9946 187.679 107.41 199.167 127.704 207.023C147.997 214.879 169.769 218.949 191.768 219C213.768 219.05 235.561 215.079 255.896 207.315C276.231 199.551 294.707 188.147 310.263 173.759C325.819 159.371 338.148 142.281 346.542 123.472C354.936 104.663 359.229 84.5057 359.175 64.1575C359.12 43.8093 354.72 23.6715 346.226 4.90101C337.732 -13.8695 325.313 -30.9027 309.68 -45.2201ZM48.4587 64C48.4533 52.2823 50.133 40.616 53.4536 29.308C58.9257 40.2031 66.8729 49.6157 72.2779 60.7935C79.2634 75.164 98.0206 71.1783 106.303 83.7698C113.654 94.9476 105.804 109.084 111.306 120.779C115.302 129.267 124.725 131.122 131.226 137.328C137.869 143.589 137.727 152.168 138.741 160.332C139.885 169.925 141.741 179.433 144.295 188.79C144.295 188.859 144.295 188.935 144.355 189.004C88.5675 170.882 48.4587 121.696 48.4587 64ZM191.598 196.396C183.604 196.394 175.624 195.776 167.741 194.548C167.823 192.68 167.861 190.935 168.062 189.721C169.874 178.757 175.808 168.035 183.815 159.829C191.725 151.733 202.565 146.258 209.244 137.073C215.79 128.109 217.751 116.041 215.052 105.567C211.078 90.0931 188.347 84.9283 176.091 76.5363C169.046 71.7093 162.776 64.2482 153.524 63.6414C149.26 63.3656 145.689 64.2138 141.462 63.207C137.585 62.2761 134.544 60.3453 130.413 60.8487C122.697 61.7865 117.829 69.4131 109.539 68.3787C101.674 67.4064 93.5699 58.8903 91.7807 51.9602C89.4845 43.051 97.1037 40.1618 105.267 39.3688C108.674 39.0378 112.499 38.6792 115.771 39.8377C120.08 41.3133 122.116 45.2163 125.985 47.1884C133.239 50.8707 134.708 44.9887 133.597 39.0309C131.934 30.1079 129.996 26.4739 138.599 20.3299C144.563 16.096 149.663 13.0343 148.708 5.42842C148.142 0.960045 145.495 -1.06037 147.963 -5.50806C149.834 -8.89382 154.971 -11.9486 158.318 -13.969C166.959 -19.1821 195.333 -18.796 183.74 -33.3871C180.333 -37.6693 174.048 -45.3235 168.084 -46.3716C160.629 -47.6749 157.319 -39.9794 152.123 -36.5867C146.755 -33.0768 136.303 -29.0912 130.928 -34.518C123.696 -41.8205 135.721 -44.2133 138.383 -49.3161C139.613 -51.6951 138.383 -54.9981 136.31 -58.108C138.999 -59.1562 141.733 -60.1284 144.511 -61.0249C146.252 -59.8354 148.318 -59.1189 150.475 -58.9562C155.463 -58.6528 160.167 -61.149 164.521 -58.0046C169.352 -54.5568 172.833 -50.1987 179.245 -49.123C185.447 -48.0818 192.015 -51.4261 193.551 -57.3012C194.483 -60.8732 193.551 -64.6451 192.657 -68.3342C220.539 -68.1859 247.76 -60.4623 270.936 -46.1234C269.445 -46.6475 267.663 -46.5854 265.464 -45.6407C260.938 -43.6961 254.527 -38.7451 253.998 -33.8354C253.394 -28.2637 262.28 -27.4776 266.5 -27.4776C272.837 -27.4776 279.256 -30.0979 277.213 -36.8694C276.326 -39.807 275.118 -42.8617 273.172 -44.7098C277.85 -41.7077 282.331 -38.4519 286.592 -34.9593C286.525 -34.8973 286.458 -34.8421 286.39 -34.7732C282.096 -30.6358 277.109 -27.3603 274.171 -22.3265C272.099 -18.7822 269.765 -17.0996 265.568 -16.1825C263.257 -15.6791 260.618 -15.493 258.68 -14.0587C253.282 -10.1281 256.354 -0.681114 261.468 2.15299C267.931 5.73183 277.519 4.04929 282.394 -1.06038C286.204 -5.05985 288.448 -12.0038 295.299 -11.9969C298.316 -12.0027 301.213 -10.9103 303.366 -8.95588C306.199 -6.239 305.64 -3.70142 306.244 -0.308754C307.31 5.71803 313.058 2.44951 316.554 -0.591469C319.103 3.60397 321.402 7.92474 323.443 12.3516C319.596 17.4751 316.539 23.0606 307.287 17.089C301.748 13.5101 298.341 8.31769 291.385 6.70411C285.309 5.32498 279.084 6.75928 273.083 7.71777C266.261 8.81418 258.173 9.29688 252.999 14.0756C247.996 18.6818 245.35 24.8465 240.027 29.4735C229.731 38.4379 225.385 48.2228 232.05 60.897C238.461 73.0816 251.873 79.6945 266.344 78.8256C280.561 77.9499 295.329 70.3233 294.919 89.4311C294.77 96.1958 296.298 100.878 298.542 107.16C300.622 112.952 300.481 118.565 300.958 124.544C301.411 131.545 302.595 138.489 304.492 145.279C291.129 161.192 274.011 174.071 254.445 182.93C234.879 191.789 213.383 196.395 191.598 196.396Z" fill="#008FA0" fill-opacity="0.04"/>
<path d="M23.8566 63.9104C172.945 118.765 257.847 123.788 413 68.7846" stroke="white" stroke-opacity="0.3" stroke-width="5.16797" stroke-dasharray="43.07 43.07"/>
<path d="M1.23055 53.8898C1.95511 52.3536 3.87566 51.6563 5.5164 52.3338L16.4675 56.7524L33.3639 46.0428L37.3535 47.6371L25.4118 60.3459L36.391 64.7759L41.0988 62.2898L44.0908 63.5125L39.0587 69.1377L38.0119 76.4018L34.9873 75.2124L33.7514 70.2661L22.8567 65.8702L20.8482 82.6335L16.8709 81.0131L13.864 62.2727L2.91289 57.854C1.29596 57.2326 0.502399 55.3627 1.23055 53.8898Z" fill="#008FA0" fill-opacity="0.04"/>
</svg>
